<?xml version="1.0" encoding="utf-8"?>
<!-- Generator: Adobe Illustrator 24.0.0, SVG Export Plug-In . SVG Version: 6.00 Build 0)  -->
<svg version="1.1" id="Layer_1" xmlns="http://www.w3.org/2000/svg" xmlns:xlink="http://www.w3.org/1999/xlink" x="0px" y="0px"
	 viewBox="0 0 84.22 11.58" style="enable-background:new 0 0 84.22 11.58;" xml:space="preserve">
<style type="text/css">
	.st0{fill:#ffffff;}
</style>
<g>
	<g>
		<polygon class="st0" points="9.39,0.32 9.39,11.49 7.23,11.49 7.23,6.72 2.17,6.72 2.17,11.49 0,11.49 0,0.32 2.17,0.32 
			2.17,4.84 7.23,4.84 7.23,0.32 		"/>
		<polygon class="st0" points="14.86,0.32 17.61,5.7 20.41,0.32 22.75,0.32 18.69,7.59 18.69,11.49 16.54,11.49 16.54,7.56 
			12.5,0.32 		"/>
		<path class="st0" d="M25.86,11.49V0.32h4.73c0.51,0,0.99,0.11,1.42,0.32c0.44,0.22,0.81,0.5,1.12,0.85
			c0.32,0.35,0.56,0.75,0.74,1.2c0.18,0.44,0.27,0.89,0.27,1.34c0,0.47-0.08,0.93-0.25,1.38c-0.17,0.45-0.4,0.84-0.71,1.19
			c-0.3,0.35-0.67,0.62-1.1,0.83c-0.43,0.21-0.9,0.31-1.41,0.31h-2.64v3.74H25.86z M28.03,5.84h2.52c0.4,0,0.73-0.16,1-0.49
			c0.27-0.32,0.4-0.76,0.4-1.32c0-0.28-0.04-0.54-0.13-0.76c-0.08-0.23-0.19-0.42-0.33-0.57c-0.14-0.16-0.3-0.28-0.48-0.35
			c-0.18-0.08-0.37-0.12-0.56-0.12h-2.42V5.84z"/>
		<polygon class="st0" points="45.29,9.58 45.29,11.49 37.54,11.49 37.54,0.32 45.15,0.32 45.15,2.23 39.71,2.23 39.71,4.91 
			44.41,4.91 44.41,6.68 39.71,6.68 39.71,9.58 		"/>
		<path class="st0" d="M48.88,11.49V0.32h4.94c0.51,0,0.99,0.11,1.42,0.32c0.43,0.22,0.81,0.5,1.12,0.85
			c0.31,0.35,0.56,0.75,0.74,1.2c0.18,0.44,0.27,0.89,0.27,1.34c0,0.72-0.18,1.38-0.54,1.97c-0.36,0.59-0.85,1.02-1.47,1.28
			l2.55,4.2h-2.44l-2.28-3.74h-2.14v3.74H48.88z M51.05,5.84h2.72c0.2,0,0.38-0.05,0.56-0.14c0.17-0.09,0.32-0.22,0.45-0.38
			c0.13-0.16,0.22-0.35,0.3-0.57c0.07-0.22,0.11-0.45,0.11-0.71c0-0.26-0.04-0.5-0.13-0.72c-0.08-0.22-0.2-0.41-0.34-0.57
			c-0.14-0.16-0.3-0.29-0.49-0.38c-0.18-0.09-0.37-0.13-0.56-0.13h-2.62V5.84z"/>
		<path class="st0" d="M71.19,6.5l0.37-0.48l-4.38-5.69h-3.33l4.37,5.69c-1.46,1.89-3.2,4.12-3.95,5.03l-0.45,0.54h3.38l0.1-0.12
			c0.37-0.46,0.86-1.09,1.54-1.96C70.02,8.01,71.17,6.51,71.19,6.5"/>
		<path class="st0" d="M74.07,2.5c0.43-0.57,0.86-1.15,1.22-1.65l0.39-0.53h-1.93l-0.09,0.13c-1.11,1.49-1.68,2.35-2.22,3.05
			l0.98,1.27C72.78,4.34,73.03,3.9,74.07,2.5"/>
		<path class="st0" d="M71.46,8.49l2.22,3.09h1.94l-3.17-4.36C72.27,7.44,71.91,7.91,71.46,8.49"/>
		<path class="st0" d="M82.52,6.58c1.07-1.09,1.53-2.03,1.53-3.16c0-2.14-1.83-3.42-3.59-3.42c-2.11,0-3.57,1.26-3.73,3.2
			l-0.04,0.64h1.59l0.03-0.52c0.09-1.09,0.87-1.71,2.15-1.71c0.99,0,2.01,0.68,2.01,1.81c0,0.69-0.29,1.24-1.08,2.04l-3.07,3.32
			h2.18L82.52,6.58z"/>
		<polygon class="st0" points="75.85,11.57 84.22,11.57 84.22,10 77.31,10 		"/>
	</g>
</g>
</svg>
