<svg id="Layer_1" data-name="Layer 1" xmlns="http://www.w3.org/2000/svg" viewBox="0 0 288.96 240.91"><defs><style>.cls-1{fill:#e6471f;}.cls-2{fill:#e74a1f;}.cls-3{fill:#e6501e;}.cls-4{fill:#e74e1d;}.cls-5{fill:#f4ac84;}.cls-6{fill:#fdd491;}.cls-7{fill:#fee7c7;}.cls-8{fill:#ee7e4b;}.cls-9{fill:#fde7c7;}.cls-10{fill:#ffebcb;}.cls-11{fill:#f6ab07;}.cls-12{fill:#f39908;}.cls-13{fill:#f6a709;}.cls-14{fill:#f49a0a;}.cls-15{fill:#f5a206;}.cls-16{fill:#f5a007;}.cls-17{fill:#f49d09;}.cls-18{fill:#f5a707;}.cls-19{fill:#f49e08;}.cls-20{fill:#e8571c;}.cls-21{fill:#ee7c11;}.cls-22{fill:#ea6713;}.cls-23{fill:#e6531a;}.cls-24{fill:#ea6b14;}.cls-25{fill:#ee8107;}.cls-26{fill:#e85d19;}.cls-27{fill:#ed780f;}.cls-28{fill:#ef8508;}.cls-29{fill:#e96317;}.cls-30{fill:#f08c05;}.cls-31{fill:#f19105;}.cls-32{fill:#ef8705;}.cls-33{fill:#f08e04;}.cls-34{fill:#f19304;}.cls-35{fill:#e75e19;}.cls-36{fill:#ec7510;}.cls-37{fill:#ea6e12;}.cls-38{fill:#e86118;}.cls-39{fill:#ec7312;}.cls-40{fill:#ec7115;}.cls-41{fill:#f5f5f5;}</style></defs><path class="cls-1" d="M186.61,139.05v-.61a23.32,23.32,0,0,0,0-4.87V133a46.06,46.06,0,0,1,.74-6.3,9.39,9.39,0,0,1,.69-2.32c.72-.56,1,.11,1.36.52,1.34,1.77,2.63,3.59,3.94,5.39q6.81,9.34,13.58,18.7,10.91,15,21.79,30c.23.32.55.62.38,1.09-.18.2-.49,0-.67.21H227a54.27,54.27,0,0,1-6.19-.89,44.84,44.84,0,0,1-29.87-23.78,43,43,0,0,1-4.06-13.23c-.15-1.09-.07-2.21-.27-3.3"/><path class="cls-2" d="M188.28,124.23a17.11,17.11,0,0,1,1-3c.67-.29.82.32,1.07.65,2.3,3.09,4.54,6.22,6.81,9.34q11.09,15.19,22.12,30.43c4.12,5.65,8.21,11.32,12.33,17a1.92,1.92,0,0,1,.59,1.36c-.05.16-.2.2-.31.3H230c-.3-.26-.72.06-1-.22a38.66,38.66,0,0,0-3.32-4.8c-3.42-4.78-6.91-9.52-10.37-14.27l-10.73-14.77q-4.79-6.57-9.54-13.14-3-4.1-5.92-8.17a1.27,1.27,0,0,0-.87-.65"/><path class="cls-3" d="M236.94,179.8c-.79.25-1.67.06-2.43.45h-.2c-4.17-6-8.59-11.9-12.89-17.85q-9.87-13.64-19.79-27.25c-3.81-5.21-7.51-10.51-11.43-15.64a.85.85,0,0,1-.17-.36,12.53,12.53,0,0,1,1.09-2.42c.69-.23.86.39,1.12.75,2,2.8,4.09,5.63,6.13,8.44,4.12,5.69,8.28,11.36,12.39,17,7.48,10.35,15,20.64,22.5,31,1.15,1.59,2.33,3.15,3.45,4.76.22.31.58.62.23,1.07"/><path class="cls-4" d="M190,119.15c1.22.85,1.85,2.2,2.7,3.35,4.06,5.53,8.09,11.09,12.12,16.63q5.16,7.11,10.31,14.21l10.15,14q4.35,6,8.71,12a1.33,1.33,0,0,1,.28.95h-1c-.37-.27-.85.07-1.22-.22a15.38,15.38,0,0,0-2.42-3.69c-3.83-5.33-7.7-10.63-11.56-15.94l-10.63-14.6-9.6-13.24-8-11a.72.72,0,0,0-.58-.36,7.73,7.73,0,0,1,.77-2"/><path class="cls-5" d="M186.61,133.57c.47,1.2.11,2.44.18,3.66,0,.39.24.86-.18,1.21Z"/><path class="cls-6" d="M275.3,134.18v3.45l-.15.06a.54.54,0,0,1-.22-.25,4.88,4.88,0,0,1-.11-1.32,4.44,4.44,0,0,1,.18-1.88.2.2,0,0,1,.3-.06"/><path class="cls-7" d="M229.42,91.73a.49.49,0,0,0,0-.17h3a.37.37,0,0,0,0,.18c-.23.29-.56.27-.87.32-.74-.06-1.53.22-2.2-.33"/><path class="cls-8" d="M229,180c.33.08.74-.13,1,.22h-1.62c.14-.26.39-.18.61-.22"/><path class="cls-8" d="M232.07,180c.4.1.87-.16,1.22.22h-1.42l.2-.22"/><path class="cls-9" d="M275.14,137.62a.29.29,0,0,0,.16,0v1l-.08,0h-.09a.66.66,0,0,1,0-1"/><path class="cls-10" d="M275.3,134.18h-.18a.65.65,0,0,1,0-1h.17Z"/><path class="cls-11" d="M247.5,95a37.71,37.71,0,0,1,10.44,5.92,43.82,43.82,0,0,1,16.68,27.83,21.54,21.54,0,0,1,.44,4.23c-.68.25-.87-.34-1.14-.71-2.34-3.19-4.66-6.39-7-9.59q-6.81-9.33-13.58-18.7c-1.85-2.54-3.72-5.07-5.53-7.64-.27-.38-.74-.77-.32-1.34"/><path class="cls-12" d="M231.67,91.79l.82-.05,1,.07c.46.17.57.65.82,1,4.55,6.35,9.18,12.64,13.77,19q9.81,13.55,19.67,27.07c1.9,2.63,3.73,5.31,5.75,7.86.12.15.3.28.19.52-.15.53-.29,1-.43,1.58-.7.27-.87-.37-1.13-.72q-3.42-4.66-6.81-9.34-6.63-9.19-13.33-18.36Q242.25,107,232.52,93.56c-.38-.52-1-1-.85-1.77"/><path class="cls-13" d="M247.5,95c.11,1.16,1,1.88,1.61,2.73q5.74,8,11.55,15.91Q266,121,271.41,128.36c1,1.34,1.93,2.67,2.88,4,.2.29.39.56.77.59,0,.07.05.13.07.2v1c0,.68,0,1.36-.05,2-.68.25-.88-.34-1.15-.71-2.13-2.88-4.22-5.79-6.32-8.69q-6.28-8.66-12.58-17.3-5.25-7.22-10.47-14.45c-.26-.36-.69-.73-.3-1.26A13.31,13.31,0,0,1,247.5,95"/><path class="cls-14" d="M273.7,147.21a42.7,42.7,0,0,1-3.83-5.05q-9.74-13.31-19.42-26.67-8.26-11.37-16.51-22.78a6.82,6.82,0,0,1-.44-.9,5.87,5.87,0,0,1,1.82.17c1.62,2.08,3.13,4.24,4.67,6.38q6.81,9.35,13.6,18.71c6.5,9,13.07,17.92,19.54,26.93.35.49,1,.82,1,1.57a4,4,0,0,1-.39,1.64"/><path class="cls-15" d="M275.06,139.05a9.8,9.8,0,0,1-.2,2.23c-.68.25-.88-.34-1.14-.71-2.43-3.29-4.81-6.62-7.21-9.92q-10.83-14.88-21.63-29.78c-1.71-2.35-3.44-4.69-5.12-7.06-.25-.36-.7-.69-.38-1.24.79-.08,1.45.49,2.23.46,2.69,3.77,5.44,7.5,8.16,11.24q6.66,9.2,13.35,18.39c4,5.47,7.92,11,11.94,16.39"/><path class="cls-16" d="M239.38,92.57c.1.83.76,1.34,1.2,2Q247.24,103.76,254,113l10.35,14.29q4.92,6.77,9.82,13.54a.94.94,0,0,0,.72.5,7.85,7.85,0,0,1-.37,2.25,41.35,41.35,0,0,1-3.41-4.51q-6.24-8.61-12.51-17.21l-20.36-28a3.58,3.58,0,0,1-.85-1.58,7.35,7.35,0,0,1,2,.37"/><path class="cls-17" d="M274.1,145.57c-4.73-6.21-9.21-12.59-13.81-18.89l-15-20.63q-4.68-6.45-9.34-12.92a2.31,2.31,0,0,1-.59-1.15l1.42.19c1.41,1.64,2.61,3.44,3.87,5.19q7.47,10.31,15,20.58,9.38,12.91,18.76,25.82a1,1,0,0,0,.13.16c-.27.52,0,1.16-.36,1.65"/><path class="cls-18" d="M275.06,139.05c-.38,0-.56-.31-.77-.59q-8.34-11.52-16.7-23c-5-6.86-10-13.7-15-20.56a3.56,3.56,0,0,1-1-1.83,3.25,3.25,0,0,1,1.22.36c1.82,2.35,3.53,4.78,5.27,7.19,4.52,6.24,9.07,12.46,13.59,18.7,2.83,3.92,5.69,7.81,8.5,11.75,1.58,2.23,3.2,4.44,4.87,6.61l.08,0c0,.35,0,.69,0,1,0,.14,0,.27-.07.4"/><path class="cls-18" d="M275.05,137.64c-1-.47-1.4-1.5-2-2.32q-6.92-9.42-13.77-18.9-5.19-7.14-10.36-14.29c-1.77-2.45-3.58-4.88-5.35-7.33a2.87,2.87,0,0,1-.74-1.41,3.38,3.38,0,0,1,1.42.41c.16,1.14,1,1.86,1.65,2.72,3.46,4.84,7,9.64,10.49,14.45s7.18,9.83,10.76,14.76q3.56,4.89,7.1,9.81c.22.3.39.63.82.67,0,.48,0,.95,0,1.43"/><path class="cls-19" d="M274.46,143.92c-.39,0-.57-.3-.77-.58q-8.58-11.79-17.14-23.58-8.12-11.19-16.2-22.39c-1.12-1.56-2.25-3.1-3.37-4.66a3.28,3.28,0,0,1-.24-.54l.62,0c1.1,1.53,2.21,3,3.31,4.56q5.46,7.51,10.92,15L261.2,125c3.46,4.76,6.95,9.51,10.38,14.29a32,32,0,0,1,2.91,4.22l0,.39"/><path class="cls-20" d="M244.48,178.08a20.61,20.61,0,0,1-4.09,1.11c-3.35-4.54-6.65-9.11-10-13.68l-13.58-18.7q-10.65-14.64-21.28-29.29c-.93-1.29-1.85-2.58-2.82-3.84a21,21,0,0,1,2.24-3.45c.66-.27.81.35,1.05.68,2.5,3.36,4.95,6.76,7.42,10.15l13.4,18.46q10,13.69,19.9,27.4l7.27,10c.25.34.65.64.46,1.16"/><path class="cls-21" d="M265.15,164a11.9,11.9,0,0,1-2.22,2.53c-4.11-5.58-8.14-11.2-12.22-16.8s-8.24-11.31-12.34-17c-7-9.62-14-19.17-20.91-28.8-1.65-2.31-3.35-4.58-5-6.89-.21-.3-.51-.57-.47-1a11.67,11.67,0,0,1,2.83-1.23c.45-.24.59.15.78.4l9.43,13q6.78,9.3,13.52,18.63,9.85,13.53,19.67,27.08c2.2,3,4.43,6,6.61,9.11.2.28.57.53.32,1"/><path class="cls-22" d="M254.38,173.49a10.07,10.07,0,0,1-2.63,1.45c-.44-.1-.63-.48-.87-.8-5-6.91-10-13.85-15.09-20.76-3.91-5.36-7.79-10.73-11.69-16.09q-10.72-14.77-21.46-29.56a22,22,0,0,1-2.43-3.59,17.27,17.27,0,0,1,2.4-2.11,11.44,11.44,0,0,1,2.27,2.82c5.08,7,10.12,13.94,15.19,20.9q10.67,14.67,21.32,29.36,6.29,8.64,12.56,17.31c.22.31.56.6.43,1.07"/><path class="cls-23" d="M192.74,113.68c.39,0,.57.32.77.59q8.34,11.53,16.7,23c5.19,7.13,10.41,14.23,15.59,21.35,3.8,5.23,7.57,10.48,11.36,15.71.85,1.17,1.72,2.32,2.57,3.49.29.4.7.76.66,1.32a20.1,20.1,0,0,1-3.45.61,9.15,9.15,0,0,0-1.81-2.85q-5.76-8-11.6-16-6.72-9.21-13.44-18.42-5.46-7.5-10.9-15c-2.48-3.43-5-6.85-7.47-10.29-.16-.23-.29-.45-.6-.47a17.74,17.74,0,0,1,1.62-3"/><path class="cls-24" d="M254.38,173.49q-3.16-4.43-6.35-8.84-5.06-7-10.14-14l-10.45-14.36-10.12-14q-5.19-7.12-10.39-14.26c-1.46-2-2.88-4.06-4.32-6.09a12.92,12.92,0,0,1,2.25-1.79c4.1,5.58,8.14,11.21,12.22,16.81q6.75,9.27,13.48,18.55,10.68,14.75,21.4,29.46c1.38,1.92,2.77,3.84,4.18,5.74.25.34.63.64.5,1.15a11.27,11.27,0,0,1-2.26,1.54"/><path class="cls-25" d="M265.15,164c-1.58-2.5-3.42-4.81-5.14-7.2-3.16-4.4-6.35-8.77-9.53-13.15q-5.52-7.57-11-15.16c-3.16-4.35-6.3-8.71-9.46-13.07l-11.05-15.15q-1.83-2.53-3.63-5.09a.64.64,0,0,0-.47-.33,12.54,12.54,0,0,1,3-1.06,20.07,20.07,0,0,1,2.4,3.12c5.23,7.19,10.48,14.36,15.68,21.56,6.41,8.87,12.88,17.7,19.29,26.57q5.28,7.31,10.6,14.59a4.35,4.35,0,0,1,1.15,2,8.75,8.75,0,0,1-1.82,2.41"/><path class="cls-26" d="M244.48,178.08c-1.44-2-2.87-4.07-4.33-6.08q-5.19-7.16-10.39-14.28l-10.21-14q-5.07-7-10.13-14L199,115.43c-1.14-1.57-2.3-3.15-3.44-4.73-.16-.23-.29-.45-.6-.47a12.64,12.64,0,0,1,1.74-2.25c.62-.12.79.43,1.05.78,2.87,3.84,5.65,7.75,8.47,11.63q6.24,8.56,12.46,17.13c7.48,10.35,15,20.65,22.51,31,1.73,2.4,3.5,4.79,5.23,7.21.31.42.77.8.64,1.43a11.79,11.79,0,0,1-2.6.91"/><path class="cls-27" d="M212,96q4.66,6.39,9.33,12.8Q230.19,121,239,133.14q7.09,9.77,14.16,19.54l9.38,12.9a1.33,1.33,0,0,1,.36.9,5.2,5.2,0,0,1-1.63,1.57,23,23,0,0,1-3-3.92c-4.58-6.24-9.1-12.52-13.65-18.77q-9.81-13.49-19.6-27C220,111.44,215,104.47,209.86,97.57a.64.64,0,0,1-.17-.36A8.21,8.21,0,0,1,212,96"/><path class="cls-28" d="M267,161.54c-2.39-3.29-4.79-6.57-7.18-9.87q-5.18-7.09-10.33-14.2t-10.2-14l-10.39-14.28q-5.46-7.5-10.91-15a1.48,1.48,0,0,1-.11-.39,6.17,6.17,0,0,1,2-.57c.45-.23.61.12.8.39l15.45,21.26c4,5.58,8.12,11.15,12.16,16.74q9.43,13,18.9,26a13.56,13.56,0,0,1,1.31,1.8,8.2,8.2,0,0,1-1.51,2.17"/><path class="cls-29" d="M200.21,104.14c1.59,1.83,2.9,3.87,4.33,5.82q5.25,7.16,10.45,14.35t10.32,14.22l10.15,13.95q5,6.95,10.07,13.88l6.22,8.58a6.88,6.88,0,0,1-1.81.87,10.05,10.05,0,0,1-2.21-2.73q-8.46-11.58-16.88-23.21l-21.28-29.31q-5-6.93-10.09-13.87a2.71,2.71,0,0,1-.66-1.12l1.39-1.43"/><path class="cls-30" d="M270.42,155.88a6.47,6.47,0,0,1-1,1.87c-.54-.16-.75-.67-1-1.06q-6.92-9.45-13.79-18.94L241.14,119.2q-9.24-12.7-18.47-25.44c-.24-.34-.64-.66-.34-1.16a3.23,3.23,0,0,1,1.41-.24c.76-.31,1.19.13,1.59.69q4.29,5.9,8.59,11.8,6.79,9.34,13.57,18.7,10.65,14.63,21.27,29.28c.47.66,1,1.3,1.44,2,.24.33.51.65.22,1.09"/><path class="cls-31" d="M272.52,151a10.28,10.28,0,0,1-1.06,2.64c-.58-.15-.85-.65-1.16-1.08-4.87-6.65-9.69-13.34-14.54-20q-6.24-8.57-12.46-17.13-8-11-16-22.06c-.3-.41-.79-.8-.48-1.43a7.68,7.68,0,0,1,2.44-.18,14.75,14.75,0,0,1,2.41,3.1q6.82,9.39,13.65,18.78,9.8,13.5,19.61,27c2.53,3.47,5,7,7.61,10.38"/><path class="cls-32" d="M222.33,92.6a5.59,5.59,0,0,0,1.31,2.13c6.06,8.36,12.17,16.68,18.24,25,4.89,6.72,9.73,13.47,14.61,20.2q6.45,8.9,12.94,17.78a6.11,6.11,0,0,1-.95,1.62,6.34,6.34,0,0,1-1.9-2.19c-4-5.48-8-11-12-16.49s-7.85-10.76-11.76-16.15c-3.45-4.73-6.87-9.48-10.31-14.21q-5.84-8.06-11.7-16.08c-.28-.37-.33-1-1-1.08a9.15,9.15,0,0,1,2.47-.57"/><path class="cls-33" d="M226.8,92c.48,1.48,1.61,2.55,2.49,3.77,3.64,5.09,7.35,10.12,11,15.18q5.07,7,10.15,14l10,13.8q5.12,7.08,10.24,14.15c.21.3.47.57.71.85a8,8,0,0,1-1,2.2,1.2,1.2,0,0,0-.31-.82q-7.2-9.88-14.36-19.77-7.81-10.73-15.67-21.44c-4-5.43-7.89-10.89-11.84-16.34-1.09-1.5-2.2-3-3.25-4.51a1.25,1.25,0,0,0-1.26-.63,17.44,17.44,0,0,1,3.06-.4"/><path class="cls-34" d="M272.52,151c-1-.35-1.34-1.36-1.9-2.11q-6.93-9.44-13.79-18.92c-3.79-5.23-7.56-10.48-11.36-15.71-3.91-5.39-7.87-10.74-11.75-16.16-1.51-2.1-3.16-4.11-4.48-6.35l.18-.06,2.25.06c1.56,2.53,3.42,4.84,5.15,7.24,3.16,4.4,6.35,8.77,9.53,13.16l10.92,15,9.55,13.14c1.94,2.67,3.89,5.33,5.82,8,.17.24.32.44.63.44a11,11,0,0,1-.75,2.25"/><path class="cls-35" d="M247.08,177.16c-1.76-2.75-3.78-5.31-5.69-8-3.15-4.4-6.36-8.76-9.55-13.14L221.33,141.6q-5.16-7.11-10.31-14.22t-10.16-14c-1.17-1.61-2.34-3.21-3.49-4.82a1.61,1.61,0,0,0-.65-.62,3.94,3.94,0,0,1,1.24-1.45,18.69,18.69,0,0,1,2.41,3.12Q208.2,120.44,216,131.2c7,9.61,14,19.18,20.9,28.79q5.33,7.35,10.67,14.68c.41.56,1.1,1,.9,1.9l-1.43.59"/><path class="cls-36" d="M209.69,97.21c1.34,1,2.09,2.54,3.05,3.85,4.68,6.34,9.29,12.72,13.91,19.09,4.32,6,8.62,11.95,12.95,17.91q6.68,9.19,13.38,18.35l8.25,11.35a.82.82,0,0,1,.07.29c-.39.16-.39.7-.82.83-.6-.2-.83-.77-1.16-1.22-5.11-7.06-10.26-14.1-15.37-21.16q-12.22-16.87-24.48-33.71c-3.35-4.62-6.73-9.23-10.07-13.86-.28-.38-.77-.72-.48-1.32a1.26,1.26,0,0,1,.77-.4"/><path class="cls-37" d="M256.64,172q-5.2-7.19-10.42-14.38-5.08-7-10.2-14t-10.4-14.28q-5-6.84-10-13.71-5.19-7.16-10.36-14.3a1.45,1.45,0,0,1-.43-1c.14-.22.29-.4.58-.38.57-.13.78.32,1,.66,6.41,8.87,12.89,17.7,19.3,26.57,4.6,6.36,9.23,12.68,13.84,19q8.76,12,17.52,24.11c.22.3.61.6.32,1.07-.36.1-.41.59-.8.65"/><path class="cls-38" d="M248.51,176.57a36.08,36.08,0,0,0-3.31-4.79c-3.22-4.49-6.47-8.94-9.71-13.39q-5.43-7.47-10.87-14.92c-3.16-4.35-6.3-8.72-9.46-13.07q-5.52-7.58-11-15.16-3-4.15-6-8.32a1.6,1.6,0,0,1-.11-.39.56.56,0,0,1,.36-.39c.53-.14.7.29.93.6l12.89,17.71,13.69,18.87q10.62,14.6,21.21,29.2c.65.91,1.36,1.77,1.94,2.73.22.37.52.78-.06,1.13l-.41.19"/><path class="cls-38" d="M248.92,176.38c.33-.49,0-.82-.26-1.18l-7.93-10.95-9.54-13.16-10.93-15-9.6-13.23q-5.5-7.56-11-15.09c-.41-.56-.64-1.29-1.33-1.61l.5-.57a28.23,28.23,0,0,1,2.86,3.76c3.71,5,7.38,10.11,11.06,15.17,3.17,4.35,6.31,8.72,9.47,13.07q5.46,7.52,10.92,15,4.78,6.57,9.55,13.15c2.43,3.35,4.84,6.71,7.26,10.07a1.47,1.47,0,0,1-1,.57"/><path class="cls-39" d="M259.29,169.74l-.44.54c-.38-.06-.53-.38-.73-.65q-11.76-16.14-23.49-32.31Q222,119.89,209.31,102.47l-2-2.71c-.23-.32-.55-.63-.22-1.08a.14.14,0,0,1,.15,0c.61-.26.85.22,1.13.59,2.05,2.72,4,5.5,6,8.26q6,8.25,12,16.49,8.22,11.31,16.43,22.63,7.46,10.24,14.88,20.51c.6.82,1.48,1.49,1.58,2.62"/><path class="cls-37" d="M257.44,171.3a30.08,30.08,0,0,0-2.86-4.13c-3.47-4.84-7-9.64-10.5-14.46q-5.88-8.07-11.76-16.16c-3.16-4.35-6.3-8.72-9.47-13.08l-10.92-15c-1.86-2.56-3.73-5.11-5.58-7.68a2.67,2.67,0,0,0-.91-.92.89.89,0,0,1,.6-.41c.47-.12.57.29.75.54q9.5,13.1,19,26.17,8.28,11.4,16.59,22.8l15.25,21c.19.26.48.5.39.89l-.6.43"/><path class="cls-40" d="M207.11,98.68c-.05.38.18.61.39.9q7.45,10.23,14.88,20.48c5,6.86,10,13.69,15,20.55,3.8,5.22,7.56,10.47,11.35,15.7q5.06,7,10.13,14l-.59.46c-2.07-2.71-4-5.5-6-8.25-3.47-4.74-6.9-9.51-10.35-14.25l-12.09-16.63q-5.85-8.07-11.72-16.13L206.29,99.27l.82-.59"/><path class="cls-36" d="M208.92,97.6a14.58,14.58,0,0,0,2.17,3.26q7.71,10.68,15.48,21.31,8.35,11.46,16.7,22.92,8.63,11.88,17.21,23.79a.58.58,0,0,1-.41.35A12.62,12.62,0,0,1,257.5,166q-9.39-12.86-18.72-25.75L216,108.94c-2.28-3.14-4.54-6.3-6.84-9.43-.36-.49-1-.93-.66-1.69.06-.2.25-.18.4-.22"/><path class="cls-40" d="M206.29,99.27a7.83,7.83,0,0,1,2.13,2.49c6.51,8.94,13,17.92,19.47,26.87,6.07,8.35,12.18,16.68,18.25,25q5.91,8.11,11.78,16.26a3.61,3.61,0,0,1,.34.83c0,.12-.09.17-.21.13q-3.9-5.33-7.8-10.67-5.16-7.09-10.31-14.2l-10.39-14.27-10.2-14L209,103.5c-1-1.36-2-2.7-3-4l.25-.18"/><path class="cls-39" d="M208.52,97.82c.46,1.49,1.61,2.55,2.48,3.77,3.45,4.85,7,9.65,10.49,14.46q5.88,8.08,11.75,16.16,5.08,7,10.14,14t10.32,14.2c2.14,2.94,4.25,5.9,6.37,8.85l-.37.33a9.57,9.57,0,0,1-2.13-2.65q-7-9.74-14.13-19.44-8-11.06-16.08-22.12c-3.27-4.49-6.51-9-9.77-13.49-3-4.17-6-8.36-9.1-12.47a2,2,0,0,1-.6-1.15l.63-.42"/><path class="cls-39" d="M207.9,98.24l6.79,9.27,10.44,14.35,10.13,14,10.39,14.27q5.19,7.14,10.35,14.29c1.25,1.72,2.47,3.45,3.7,5.17-.08.2-.26.15-.41.18q-4.91-6.8-9.81-13.58-5.19-7.16-10.4-14.28l-10.2-14-10-13.8q-5.4-7.44-10.79-14.87a1.08,1.08,0,0,0-.81-.53,1,1,0,0,1,.64-.4"/><path class="cls-41" d="M154.23,182.72V8a8,8,0,1,0-16,0V182.72a8,8,0,1,0,16,0"/><path class="cls-41" d="M58,179.52a43.11,43.11,0,1,1,43.12-43.11A43.16,43.16,0,0,1,58,179.52m58-43.11a58.22,58.22,0,1,0-14.9,38.68v7.8A43.18,43.18,0,0,1,58,226a7.45,7.45,0,1,0,0,14.9,58.08,58.08,0,0,0,58-58Z"/><path class="cls-1" d="M186.61,139.05v-.61a23.32,23.32,0,0,0,0-4.87V133a46.06,46.06,0,0,1,.74-6.3,9.39,9.39,0,0,1,.69-2.32c.72-.56,1,.11,1.36.52,1.34,1.77,2.63,3.59,3.94,5.39q6.81,9.34,13.58,18.7,10.91,15,21.79,30c.23.32.55.62.38,1.09-.18.2-.49,0-.67.21H227a54.27,54.27,0,0,1-6.19-.89,44.84,44.84,0,0,1-29.87-23.78,43,43,0,0,1-4.06-13.23c-.15-1.09-.07-2.21-.27-3.3"/><path class="cls-2" d="M188.28,124.23a17.11,17.11,0,0,1,1-3c.67-.29.82.32,1.07.65,2.3,3.09,4.54,6.22,6.81,9.34q11.09,15.19,22.12,30.43c4.12,5.65,8.21,11.32,12.33,17a1.92,1.92,0,0,1,.59,1.36c-.05.16-.2.2-.31.3H230c-.3-.26-.72.06-1-.22a38.66,38.66,0,0,0-3.32-4.8c-3.42-4.78-6.91-9.52-10.37-14.27l-10.73-14.77q-4.79-6.57-9.54-13.14-3-4.1-5.92-8.17a1.27,1.27,0,0,0-.87-.65"/><path class="cls-3" d="M236.94,179.8c-.79.25-1.67.06-2.43.45h-.2c-4.17-6-8.59-11.9-12.89-17.85q-9.87-13.64-19.79-27.25c-3.81-5.21-7.51-10.51-11.43-15.64a.85.85,0,0,1-.17-.36,12.53,12.53,0,0,1,1.09-2.42c.69-.23.86.39,1.12.75,2,2.8,4.09,5.63,6.13,8.44,4.12,5.69,8.28,11.36,12.39,17,7.48,10.35,15,20.64,22.5,31,1.15,1.59,2.33,3.15,3.45,4.76.22.31.58.62.23,1.07"/><path class="cls-4" d="M190,119.15c1.22.85,1.85,2.2,2.7,3.35,4.06,5.53,8.09,11.09,12.12,16.63q5.16,7.11,10.31,14.21l10.15,14q4.35,6,8.71,12a1.33,1.33,0,0,1,.28.95h-1c-.37-.27-.85.07-1.22-.22a15.38,15.38,0,0,0-2.42-3.69c-3.83-5.33-7.7-10.63-11.56-15.94l-10.63-14.6-9.6-13.24-8-11a.72.72,0,0,0-.58-.36,7.73,7.73,0,0,1,.77-2"/><path class="cls-5" d="M186.61,133.57c.47,1.2.11,2.44.18,3.66,0,.39.24.86-.18,1.21Z"/><path class="cls-6" d="M275.3,134.18v3.45l-.15.06a.54.54,0,0,1-.22-.25,4.88,4.88,0,0,1-.11-1.32,4.44,4.44,0,0,1,.18-1.88.2.2,0,0,1,.3-.06"/><path class="cls-7" d="M229.42,91.73a.49.49,0,0,0,0-.17h3a.37.37,0,0,0,0,.18c-.23.29-.56.27-.87.32-.74-.06-1.53.22-2.2-.33"/><path class="cls-8" d="M229,180c.33.08.74-.13,1,.22h-1.62c.14-.26.39-.18.61-.22"/><path class="cls-8" d="M232.07,180c.4.1.87-.16,1.22.22h-1.42l.2-.22"/><path class="cls-9" d="M275.14,137.62a.29.29,0,0,0,.16,0v1l-.08,0h-.09a.66.66,0,0,1,0-1"/><path class="cls-10" d="M275.3,134.18h-.18a.65.65,0,0,1,0-1h.17Z"/><path class="cls-11" d="M247.5,95a37.71,37.71,0,0,1,10.44,5.92,43.82,43.82,0,0,1,16.68,27.83,21.54,21.54,0,0,1,.44,4.23c-.68.25-.87-.34-1.14-.71-2.34-3.19-4.66-6.39-7-9.59q-6.81-9.33-13.58-18.7c-1.85-2.54-3.72-5.07-5.53-7.64-.27-.38-.74-.77-.32-1.34"/><path class="cls-12" d="M231.67,91.79l.82-.05,1,.07c.46.17.57.65.82,1,4.55,6.35,9.18,12.64,13.77,19q9.81,13.55,19.67,27.07c1.9,2.63,3.73,5.31,5.75,7.86.12.15.3.28.19.52-.15.53-.29,1-.43,1.58-.7.27-.87-.37-1.13-.72q-3.42-4.66-6.81-9.34-6.63-9.19-13.33-18.36Q242.25,107,232.52,93.56c-.38-.52-1-1-.85-1.77"/><path class="cls-13" d="M247.5,95c.11,1.16,1,1.88,1.61,2.73q5.74,8,11.55,15.91Q266,121,271.41,128.36c1,1.34,1.93,2.67,2.88,4,.2.29.39.56.77.59,0,.07.05.13.07.2v1c0,.68,0,1.36-.05,2-.68.25-.88-.34-1.15-.71-2.13-2.88-4.22-5.79-6.32-8.69q-6.28-8.66-12.58-17.3-5.25-7.22-10.47-14.45c-.26-.36-.69-.73-.3-1.26A13.31,13.31,0,0,1,247.5,95"/><path class="cls-14" d="M273.7,147.21a42.7,42.7,0,0,1-3.83-5.05q-9.74-13.31-19.42-26.67-8.26-11.37-16.51-22.78a6.82,6.82,0,0,1-.44-.9,5.87,5.87,0,0,1,1.82.17c1.62,2.08,3.13,4.24,4.67,6.38q6.81,9.35,13.6,18.71c6.5,9,13.07,17.92,19.54,26.93.35.49,1,.82,1,1.57a4,4,0,0,1-.39,1.64"/><path class="cls-15" d="M275.06,139.05a9.8,9.8,0,0,1-.2,2.23c-.68.25-.88-.34-1.14-.71-2.43-3.29-4.81-6.62-7.21-9.92q-10.83-14.88-21.63-29.78c-1.71-2.35-3.44-4.69-5.12-7.06-.25-.36-.7-.69-.38-1.24.79-.08,1.45.49,2.23.46,2.69,3.77,5.44,7.5,8.16,11.24q6.66,9.2,13.35,18.39c4,5.47,7.92,11,11.94,16.39"/><path class="cls-16" d="M239.38,92.57c.1.83.76,1.34,1.2,2Q247.24,103.76,254,113l10.35,14.29q4.92,6.77,9.82,13.54a.94.94,0,0,0,.72.5,7.85,7.85,0,0,1-.37,2.25,41.35,41.35,0,0,1-3.41-4.51q-6.24-8.61-12.51-17.21l-20.36-28a3.58,3.58,0,0,1-.85-1.58,7.35,7.35,0,0,1,2,.37"/><path class="cls-17" d="M274.1,145.57c-4.73-6.21-9.21-12.59-13.81-18.89l-15-20.63q-4.68-6.45-9.34-12.92a2.31,2.31,0,0,1-.59-1.15l1.42.19c1.41,1.64,2.61,3.44,3.87,5.19q7.47,10.31,15,20.58,9.38,12.91,18.76,25.82a1,1,0,0,0,.13.16c-.27.52,0,1.16-.36,1.65"/><path class="cls-18" d="M275.06,139.05c-.38,0-.56-.31-.77-.59q-8.34-11.52-16.7-23c-5-6.86-10-13.7-15-20.56a3.56,3.56,0,0,1-1-1.83,3.25,3.25,0,0,1,1.22.36c1.82,2.35,3.53,4.78,5.27,7.19,4.52,6.24,9.07,12.46,13.59,18.7,2.83,3.92,5.69,7.81,8.5,11.75,1.58,2.23,3.2,4.44,4.87,6.61l.08,0c0,.35,0,.69,0,1,0,.14,0,.27-.07.4"/><path class="cls-18" d="M275.05,137.64c-1-.47-1.4-1.5-2-2.32q-6.92-9.42-13.77-18.9-5.19-7.14-10.36-14.29c-1.77-2.45-3.58-4.88-5.35-7.33a2.87,2.87,0,0,1-.74-1.41,3.38,3.38,0,0,1,1.42.41c.16,1.14,1,1.86,1.65,2.72,3.46,4.84,7,9.64,10.49,14.45s7.18,9.83,10.76,14.76q3.56,4.89,7.1,9.81c.22.3.39.63.82.67,0,.48,0,.95,0,1.43"/><path class="cls-19" d="M274.46,143.92c-.39,0-.57-.3-.77-.58q-8.58-11.79-17.14-23.58-8.12-11.19-16.2-22.39c-1.12-1.56-2.25-3.1-3.37-4.66a3.28,3.28,0,0,1-.24-.54l.62,0c1.1,1.53,2.21,3,3.31,4.56q5.46,7.51,10.92,15L261.2,125c3.46,4.76,6.95,9.51,10.38,14.29a32,32,0,0,1,2.91,4.22l0,.39"/><path class="cls-20" d="M244.48,178.08a20.61,20.61,0,0,1-4.09,1.11c-3.35-4.54-6.65-9.11-10-13.68l-13.58-18.7q-10.65-14.64-21.28-29.29c-.93-1.29-1.85-2.58-2.82-3.84a21,21,0,0,1,2.24-3.45c.66-.27.81.35,1.05.68,2.5,3.36,4.95,6.76,7.42,10.15l13.4,18.46q10,13.69,19.9,27.4l7.27,10c.25.34.65.64.46,1.16"/><path class="cls-21" d="M265.15,164a11.9,11.9,0,0,1-2.22,2.53c-4.11-5.58-8.14-11.2-12.22-16.8s-8.24-11.31-12.34-17c-7-9.62-14-19.17-20.91-28.8-1.65-2.31-3.35-4.58-5-6.89-.21-.3-.51-.57-.47-1a11.67,11.67,0,0,1,2.83-1.23c.45-.24.59.15.78.4l9.43,13q6.78,9.3,13.52,18.63,9.85,13.53,19.67,27.08c2.2,3,4.43,6,6.61,9.11.2.28.57.53.32,1"/><path class="cls-22" d="M254.38,173.49a10.07,10.07,0,0,1-2.63,1.45c-.44-.1-.63-.48-.87-.8-5-6.91-10-13.85-15.09-20.76-3.91-5.36-7.79-10.73-11.69-16.09q-10.72-14.77-21.46-29.56a22,22,0,0,1-2.43-3.59,17.27,17.27,0,0,1,2.4-2.11,11.44,11.44,0,0,1,2.27,2.82c5.08,7,10.12,13.94,15.19,20.9q10.67,14.67,21.32,29.36,6.29,8.64,12.56,17.31c.22.31.56.6.43,1.07"/><path class="cls-23" d="M192.74,113.68c.39,0,.57.32.77.59q8.34,11.53,16.7,23c5.19,7.13,10.41,14.23,15.59,21.35,3.8,5.23,7.57,10.48,11.36,15.71.85,1.17,1.72,2.32,2.57,3.49.29.4.7.76.66,1.32a20.1,20.1,0,0,1-3.45.61,9.15,9.15,0,0,0-1.81-2.85q-5.76-8-11.6-16-6.72-9.21-13.44-18.42-5.46-7.5-10.9-15c-2.48-3.43-5-6.85-7.47-10.29-.16-.23-.29-.45-.6-.47a17.74,17.74,0,0,1,1.62-3"/><path class="cls-24" d="M254.38,173.49q-3.16-4.43-6.35-8.84-5.06-7-10.14-14l-10.45-14.36-10.12-14q-5.19-7.12-10.39-14.26c-1.46-2-2.88-4.06-4.32-6.09a12.92,12.92,0,0,1,2.25-1.79c4.1,5.58,8.14,11.21,12.22,16.81q6.75,9.27,13.48,18.55,10.68,14.75,21.4,29.46c1.38,1.92,2.77,3.84,4.18,5.74.25.34.63.64.5,1.15a11.27,11.27,0,0,1-2.26,1.54"/><path class="cls-25" d="M265.15,164c-1.58-2.5-3.42-4.81-5.14-7.2-3.16-4.4-6.35-8.77-9.53-13.15q-5.52-7.57-11-15.16c-3.16-4.35-6.3-8.71-9.46-13.07l-11.05-15.15q-1.83-2.53-3.63-5.09a.64.64,0,0,0-.47-.33,12.54,12.54,0,0,1,3-1.06,20.07,20.07,0,0,1,2.4,3.12c5.23,7.19,10.48,14.36,15.68,21.56,6.41,8.87,12.88,17.7,19.29,26.57q5.28,7.31,10.6,14.59a4.35,4.35,0,0,1,1.15,2,8.75,8.75,0,0,1-1.82,2.41"/><path class="cls-26" d="M244.48,178.08c-1.44-2-2.87-4.07-4.33-6.08q-5.19-7.16-10.39-14.28l-10.21-14q-5.07-7-10.13-14L199,115.43c-1.14-1.57-2.3-3.15-3.44-4.73-.16-.23-.29-.45-.6-.47a12.64,12.64,0,0,1,1.74-2.25c.62-.12.79.43,1.05.78,2.87,3.84,5.65,7.75,8.47,11.63q6.24,8.56,12.46,17.13c7.48,10.35,15,20.65,22.51,31,1.73,2.4,3.5,4.79,5.23,7.21.31.42.77.8.64,1.43a11.79,11.79,0,0,1-2.6.91"/><path class="cls-27" d="M212,96q4.66,6.39,9.33,12.8Q230.19,121,239,133.14q7.09,9.77,14.16,19.54l9.38,12.9a1.33,1.33,0,0,1,.36.9,5.2,5.2,0,0,1-1.63,1.57,23,23,0,0,1-3-3.92c-4.58-6.24-9.1-12.52-13.65-18.77q-9.81-13.49-19.6-27C220,111.44,215,104.47,209.86,97.57a.64.64,0,0,1-.17-.36A8.21,8.21,0,0,1,212,96"/><path class="cls-28" d="M267,161.54c-2.39-3.29-4.79-6.57-7.18-9.87q-5.18-7.09-10.33-14.2t-10.2-14l-10.39-14.28q-5.46-7.5-10.91-15a1.48,1.48,0,0,1-.11-.39,6.17,6.17,0,0,1,2-.57c.45-.23.61.12.8.39l15.45,21.26c4,5.58,8.12,11.15,12.16,16.74q9.43,13,18.9,26a13.56,13.56,0,0,1,1.31,1.8,8.2,8.2,0,0,1-1.51,2.17"/><path class="cls-29" d="M200.21,104.14c1.59,1.83,2.9,3.87,4.33,5.82q5.25,7.16,10.45,14.35t10.32,14.22l10.15,13.95q5,6.95,10.07,13.88l6.22,8.58a6.88,6.88,0,0,1-1.81.87,10.05,10.05,0,0,1-2.21-2.73q-8.46-11.58-16.88-23.21l-21.28-29.31q-5-6.93-10.09-13.87a2.71,2.71,0,0,1-.66-1.12l1.39-1.43"/><path class="cls-30" d="M270.42,155.88a6.47,6.47,0,0,1-1,1.87c-.54-.16-.75-.67-1-1.06q-6.92-9.45-13.79-18.94L241.14,119.2q-9.24-12.7-18.47-25.44c-.24-.34-.64-.66-.34-1.16a3.23,3.23,0,0,1,1.41-.24c.76-.31,1.19.13,1.59.69q4.29,5.9,8.59,11.8,6.79,9.34,13.57,18.7,10.65,14.63,21.27,29.28c.47.66,1,1.3,1.44,2,.24.33.51.65.22,1.09"/><path class="cls-31" d="M272.52,151a10.28,10.28,0,0,1-1.06,2.64c-.58-.15-.85-.65-1.16-1.08-4.87-6.65-9.69-13.34-14.54-20q-6.24-8.57-12.46-17.13-8-11-16-22.06c-.3-.41-.79-.8-.48-1.43a7.68,7.68,0,0,1,2.44-.18,14.75,14.75,0,0,1,2.41,3.1q6.82,9.39,13.65,18.78,9.8,13.5,19.61,27c2.53,3.47,5,7,7.61,10.38"/><path class="cls-32" d="M222.33,92.6a5.59,5.59,0,0,0,1.31,2.13c6.06,8.36,12.17,16.68,18.24,25,4.89,6.72,9.73,13.47,14.61,20.2q6.45,8.9,12.94,17.78a6.11,6.11,0,0,1-.95,1.62,6.34,6.34,0,0,1-1.9-2.19c-4-5.48-8-11-12-16.49s-7.85-10.76-11.76-16.15c-3.45-4.73-6.87-9.48-10.31-14.21q-5.84-8.06-11.7-16.08c-.28-.37-.33-1-1-1.08a9.15,9.15,0,0,1,2.47-.57"/><path class="cls-33" d="M226.8,92c.48,1.48,1.61,2.55,2.49,3.77,3.64,5.09,7.35,10.12,11,15.18q5.07,7,10.15,14l10,13.8q5.12,7.08,10.24,14.15c.21.3.47.57.71.85a8,8,0,0,1-1,2.2,1.2,1.2,0,0,0-.31-.82q-7.2-9.88-14.36-19.77-7.81-10.73-15.67-21.44c-4-5.43-7.89-10.89-11.84-16.34-1.09-1.5-2.2-3-3.25-4.51a1.25,1.25,0,0,0-1.26-.63,17.44,17.44,0,0,1,3.06-.4"/><path class="cls-34" d="M272.52,151c-1-.35-1.34-1.36-1.9-2.11q-6.93-9.44-13.79-18.92c-3.79-5.23-7.56-10.48-11.36-15.71-3.91-5.39-7.87-10.74-11.75-16.16-1.51-2.1-3.16-4.11-4.48-6.35l.18-.06,2.25.06c1.56,2.53,3.42,4.84,5.15,7.24,3.16,4.4,6.35,8.77,9.53,13.16l10.92,15,9.55,13.14c1.94,2.67,3.89,5.33,5.82,8,.17.24.32.44.63.44a11,11,0,0,1-.75,2.25"/><path class="cls-35" d="M247.08,177.16c-1.76-2.75-3.78-5.31-5.69-8-3.15-4.4-6.36-8.76-9.55-13.14L221.33,141.6q-5.16-7.11-10.31-14.22t-10.16-14c-1.17-1.61-2.34-3.21-3.49-4.82a1.61,1.61,0,0,0-.65-.62,3.94,3.94,0,0,1,1.24-1.45,18.69,18.69,0,0,1,2.41,3.12Q208.2,120.44,216,131.2c7,9.61,14,19.18,20.9,28.79q5.33,7.35,10.67,14.68c.41.56,1.1,1,.9,1.9l-1.43.59"/><path class="cls-36" d="M209.69,97.21c1.34,1,2.09,2.54,3.05,3.85,4.68,6.34,9.29,12.72,13.91,19.09,4.32,6,8.62,11.95,12.95,17.91q6.68,9.19,13.38,18.35l8.25,11.35a.82.82,0,0,1,.07.29c-.39.16-.39.7-.82.83-.6-.2-.83-.77-1.16-1.22-5.11-7.06-10.26-14.1-15.37-21.16q-12.22-16.87-24.48-33.71c-3.35-4.62-6.73-9.23-10.07-13.86-.28-.38-.77-.72-.48-1.32a1.26,1.26,0,0,1,.77-.4"/><path class="cls-37" d="M256.64,172q-5.2-7.19-10.42-14.38-5.08-7-10.2-14t-10.4-14.28q-5-6.84-10-13.71-5.19-7.16-10.36-14.3a1.45,1.45,0,0,1-.43-1c.14-.22.29-.4.58-.38.57-.13.78.32,1,.66,6.41,8.87,12.89,17.7,19.3,26.57,4.6,6.36,9.23,12.68,13.84,19q8.76,12,17.52,24.11c.22.3.61.6.32,1.07-.36.1-.41.59-.8.65"/><path class="cls-38" d="M248.51,176.57a36.08,36.08,0,0,0-3.31-4.79c-3.22-4.49-6.47-8.94-9.71-13.39q-5.43-7.47-10.87-14.92c-3.16-4.35-6.3-8.72-9.46-13.07q-5.52-7.58-11-15.16-3-4.15-6-8.32a1.6,1.6,0,0,1-.11-.39.56.56,0,0,1,.36-.39c.53-.14.7.29.93.6l12.89,17.71,13.69,18.87q10.62,14.6,21.21,29.2c.65.91,1.36,1.77,1.94,2.73.22.37.52.78-.06,1.13l-.41.19"/><path class="cls-38" d="M248.92,176.38c.33-.49,0-.82-.26-1.18l-7.93-10.95-9.54-13.16-10.93-15-9.6-13.23q-5.5-7.56-11-15.09c-.41-.56-.64-1.29-1.33-1.61l.5-.57a28.23,28.23,0,0,1,2.86,3.76c3.71,5,7.38,10.11,11.06,15.17,3.17,4.35,6.31,8.72,9.47,13.07q5.46,7.52,10.92,15,4.78,6.57,9.55,13.15c2.43,3.35,4.84,6.71,7.26,10.07a1.47,1.47,0,0,1-1,.57"/><path class="cls-39" d="M259.29,169.74l-.44.54c-.38-.06-.53-.38-.73-.65q-11.76-16.14-23.49-32.31Q222,119.89,209.31,102.47l-2-2.71c-.23-.32-.55-.63-.22-1.08a.14.14,0,0,1,.15,0c.61-.26.85.22,1.13.59,2.05,2.72,4,5.5,6,8.26q6,8.25,12,16.49,8.22,11.31,16.43,22.63,7.46,10.24,14.88,20.51c.6.82,1.48,1.49,1.58,2.62"/><path class="cls-37" d="M257.44,171.3a30.08,30.08,0,0,0-2.86-4.13c-3.47-4.84-7-9.64-10.5-14.46q-5.88-8.07-11.76-16.16c-3.16-4.35-6.3-8.72-9.47-13.08l-10.92-15c-1.86-2.56-3.73-5.11-5.58-7.68a2.67,2.67,0,0,0-.91-.92.89.89,0,0,1,.6-.41c.47-.12.57.29.75.54q9.5,13.1,19,26.17,8.28,11.4,16.59,22.8l15.25,21c.19.26.48.5.39.89l-.6.43"/><path class="cls-40" d="M207.11,98.68c-.05.38.18.61.39.9q7.45,10.23,14.88,20.48c5,6.86,10,13.69,15,20.55,3.8,5.22,7.56,10.47,11.35,15.7q5.06,7,10.13,14l-.59.46c-2.07-2.71-4-5.5-6-8.25-3.47-4.74-6.9-9.51-10.35-14.25l-12.09-16.63q-5.85-8.07-11.72-16.13L206.29,99.27l.82-.59"/><path class="cls-36" d="M208.92,97.6a14.58,14.58,0,0,0,2.17,3.26q7.71,10.68,15.48,21.31,8.35,11.46,16.7,22.92,8.63,11.88,17.21,23.79a.58.58,0,0,1-.41.35A12.62,12.62,0,0,1,257.5,166q-9.39-12.86-18.72-25.75L216,108.94c-2.28-3.14-4.54-6.3-6.84-9.43-.36-.49-1-.93-.66-1.69.06-.2.25-.18.4-.22"/><path class="cls-40" d="M206.29,99.27a7.83,7.83,0,0,1,2.13,2.49c6.51,8.94,13,17.92,19.47,26.87,6.07,8.35,12.18,16.68,18.25,25q5.91,8.11,11.78,16.26a3.61,3.61,0,0,1,.34.83c0,.12-.09.17-.21.13q-3.9-5.33-7.8-10.67-5.16-7.09-10.31-14.2l-10.39-14.27-10.2-14L209,103.5c-1-1.36-2-2.7-3-4l.25-.18"/><path class="cls-39" d="M208.52,97.82c.46,1.49,1.61,2.55,2.48,3.77,3.45,4.85,7,9.65,10.49,14.46q5.88,8.08,11.75,16.16,5.08,7,10.14,14t10.32,14.2c2.14,2.94,4.25,5.9,6.37,8.85l-.37.33a9.57,9.57,0,0,1-2.13-2.65q-7-9.74-14.13-19.44-8-11.06-16.08-22.12c-3.27-4.49-6.51-9-9.77-13.49-3-4.17-6-8.36-9.1-12.47a2,2,0,0,1-.6-1.15l.63-.42"/><path class="cls-39" d="M207.9,98.24l6.79,9.27,10.44,14.35,10.13,14,10.39,14.27q5.19,7.14,10.35,14.29c1.25,1.72,2.47,3.45,3.7,5.17-.08.2-.26.15-.41.18q-4.91-6.8-9.81-13.58-5.19-7.16-10.4-14.28l-10.2-14-10-13.8q-5.4-7.44-10.79-14.87a1.08,1.08,0,0,0-.81-.53,1,1,0,0,1,.64-.4"/><path class="cls-41" d="M231,179.51a43.11,43.11,0,1,1,43.12-43.1A43.16,43.16,0,0,1,231,179.51m0-101.12a58,58,0,1,0,58,58,58.07,58.07,0,0,0-58-58"/></svg>